# xmcd
#
# Track frame offsets:
#	150
#	15539
#	27886
#	46143
#	58910
#	72615
#	85592
#	103104
#	118963
#	136293
#	150222
#	183618
#
# Disc length: 3284 seconds
#
# Revision: 1
# Processed by: cddbd v1.5.2PL0 Copyright (c) Steve Scherf et al.
# Submitted via: audiograbber 1.83.01
#
DISCID=9e0cd20c
DTITLE=Gilby Clarke - Swag
DYEAR=1900
DGENRE=
TTITLE0=Alien
TTITLE1=Under the Gun
TTITLE2=Crocodile Tears
TTITLE3=Broken Down Car
TTITLE4=Margarita
TTITLE5=I'm Nobody
TTITLE6=Judgement Day
TTITLE7=Beware of the Dog
TTITLE8=Heart of Chrome
TTITLE9=Warm Country Sun
TTITLE10=Diamond Dogs
TTITLE11=Daten-CD
EXTD=
EXTT0=
EXTT1=
EXTT2=
EXTT3=
EXTT4=
EXTT5=
EXTT6=
EXTT7=
EXTT8=
EXTT9=
EXTT10=
EXTT11=
PLAYORDER=
